<svg xmlns="http://www.w3.org/2000/svg" viewBox="0 0 320 220" role="img" aria-labelledby="title desc">
  <title id="title">Library system thumbnail</title>
  <desc id="desc">Books, calendar, and dashboard illustration for the library and event booking system.</desc>
  <rect width="320" height="220" fill="#fffaf6"/>
  <rect x="16" y="16" width="288" height="188" rx="14" fill="#f9efe3" stroke="#e4d0bb"/>
  <text x="26" y="42" fill="#8c5532" font-family="Arial, sans-serif" font-size="22" font-weight="700">Library App</text>
  <rect x="44" y="86" width="24" height="78" fill="#d36b5d"/>
  <rect x="72" y="80" width="26" height="84" fill="#f2a65a"/>
  <rect x="102" y="92" width="24" height="72" fill="#6aa5a0"/>
  <rect x="172" y="82" width="106" height="86" rx="10" fill="#ffffff" stroke="#d7bca7"/>
  <rect x="172" y="82" width="106" height="22" rx="10" fill="#8c5532"/>
  <rect x="188" y="118" width="20" height="18" rx="4" fill="#f2a65a"/>
  <rect x="216" y="118" width="20" height="18" rx="4" fill="#f6d6b4"/>
  <rect x="244" y="118" width="20" height="18" rx="4" fill="#f6d6b4"/>
  <rect x="188" y="144" width="20" height="18" rx="4" fill="#f6d6b4"/>
  <rect x="216" y="144" width="20" height="18" rx="4" fill="#6aa5a0"/>
  <rect x="244" y="144" width="20" height="18" rx="4" fill="#f6d6b4"/>
  <text x="48" y="190" fill="#4a4a4a" font-family="Arial, sans-serif" font-size="16">bookings, events, invoices, dashboards</text>
</svg>
