<svg xmlns="http://www.w3.org/2000/svg" viewBox="0 0 320 220" role="img" aria-labelledby="title desc">
  <title id="title">DefaultRisk thumbnail</title>
  <desc id="desc">Cloud bucket, warning symbol, and policy card for the DefaultRisk project.</desc>
  <rect width="320" height="220" fill="#f6fbff"/>
  <rect x="16" y="16" width="288" height="188" rx="14" fill="#eaf4ff" stroke="#c0d7ef"/>
  <text x="26" y="42" fill="#1b4f80" font-family="Arial, sans-serif" font-size="22" font-weight="700">DefaultRisk</text>
  <path d="M94 146 a34 20 0 0 1 12 -62 41 41 0 0 1 75 10 28 28 0 0 1 13 52 z" fill="#7fb5e8"/>
  <polygon points="154,96 176,138 132,138" fill="#f28c28"/>
  <rect x="206" y="86" width="66" height="78" rx="8" fill="#ffffff" stroke="#7fb5e8"/>
  <rect x="220" y="102" width="38" height="8" rx="4" fill="#d4e8fa"/>
  <rect x="220" y="120" width="34" height="8" rx="4" fill="#d4e8fa"/>
  <rect x="220" y="138" width="28" height="8" rx="4" fill="#d4e8fa"/>
  <text x="80" y="190" fill="#4a4a4a" font-family="Arial, sans-serif" font-size="16">scan Terraform plans for risky defaults</text>
</svg>
