<svg xmlns="http://www.w3.org/2000/svg" viewBox="0 0 320 220" role="img" aria-labelledby="title desc">
  <title id="title">FTD storage thumbnail</title>
  <desc id="desc">Illustration of protected update directories for a Cisco Firepower accepted solution.</desc>
  <rect width="320" height="220" fill="#fcfaf6"/>
  <rect x="16" y="16" width="288" height="188" rx="14" fill="#f9f1dd" stroke="#e1d1a5"/>
  <text x="26" y="42" fill="#6a4d00" font-family="Arial, sans-serif" font-size="22" font-weight="700">#2 FTD Storage</text>
  <rect x="42" y="78" width="94" height="86" rx="10" fill="#fff9ec" stroke="#d9bf6a"/>
  <path d="M54 96 h56 l10 10 v40 a8 8 0 0 1 -8 8 h-58 a8 8 0 0 1 -8 -8 z" fill="#ffe9a8" stroke="#d9bf6a"/>
  <rect x="182" y="82" width="96" height="82" rx="10" fill="#fffdf7" stroke="#d9bf6a"/>
  <path d="M230 94 l28 10 v22 c0 19 -12 31 -28 38 -16 -7 -28 -19 -28 -38 v-22 z" fill="#5f9e57"/>
  <path d="M217 125 l10 10 18 -22" fill="none" stroke="#ffffff" stroke-width="6" stroke-linecap="round" stroke-linejoin="round"/>
  <text x="56" y="186" fill="#5a5a5a" font-family="Arial, sans-serif" font-size="16">Do not delete update paths manually</text>
</svg>
